<svg id="Capa_1" enable-background="new 0 0 512 512" height="512" viewBox="0 0 512 512" width="512" xmlns="http://www.w3.org/2000/svg"><g><path d="m366 452c8.284 0 15-6.716 15-15v-40c0-8.284-6.716-15-15-15s-15 6.716-15 15v40c0 8.284 6.716 15 15 15z"/><path d="m146 382c-8.284 0-15 6.716-15 15v40c0 8.284 6.716 15 15 15s15-6.716 15-15v-40c0-8.284-6.716-15-15-15z"/><path d="m256 282c24.813 0 45-20.187 45-45s-20.187-45-45-45-45 20.187-45 45 20.187 45 45 45zm0-60c8.271 0 15 6.729 15 15s-6.729 15-15 15-15-6.729-15-15 6.729-15 15-15z"/><path d="m505.273 314.487-114.273-75.552v-51.935c0-5.335-2.833-10.269-7.442-12.957l-112.558-65.658v-46.385h15c8.284 0 15-6.716 15-15s-6.716-15-15-15h-15v-17c0-8.284-6.716-15-15-15s-15 6.716-15 15v17h-15c-8.284 0-15 6.716-15 15s6.716 15 15 15h15v46.385l-112.558 65.659c-4.609 2.687-7.442 7.621-7.442 12.956v51.935l-114.273 75.552c-4.2 2.778-6.727 7.477-6.727 12.513v170c0 8.284 6.716 15 15 15h482c8.284 0 15-6.716 15-15v-170c0-5.036-2.527-9.735-6.727-12.513zm-475.273 20.577 91-60.165v53.608l-42.717 25.63c-4.518 2.712-7.283 7.594-7.283 12.863v115h-41zm71 40.429 42.717-25.63c4.518-2.712 7.283-7.594 7.283-12.863v-141.384l105-61.25 105 61.25v141.384c0 5.269 2.765 10.151 7.283 12.862l42.717 25.631v106.507h-90v-75c0-35.841-29.159-65-65-65s-65 29.159-65 65v75h-90zm120 106.507v-75c0-19.299 15.701-35 35-35s35 15.701 35 35v75zm261 0h-41v-115c0-5.269-2.765-10.151-7.283-12.862l-42.717-25.631v-53.607l91 60.165z"/></g></svg>