<?xml version="1.0" encoding="iso-8859-1"?>
<!-- Generator: Adobe Illustrator 19.0.0, SVG Export Plug-In . SVG Version: 6.00 Build 0)  -->
<svg version="1.1" id="Capa_1" xmlns="http://www.w3.org/2000/svg" xmlns:xlink="http://www.w3.org/1999/xlink" x="0px" y="0px"
	 viewBox="0 0 496 496" style="enable-background:new 0 0 496 496;" xml:space="preserve">
<g>
	<g>
		<path d="M496,387.696v-57.168l-144-56v-18.8l24,14.4v-58.664l-104-62.4V80h32V32h-32V0h-48v32h-32v48h32v69.072l-104,62.4v58.664
			l24-14.4v18.8l-144,56v57.168l32-12.448V480H0v16h496v-16h-32V375.248L496,387.696z M112,480H80v-64h32V480z M144,480h-16v-80H64
			v80H48V369.032l96-37.336V480z M144,314.528L16,364.304v-22.832l128-49.776V314.528z M208,64V48h32V16h16v32h32v16h-32v80h-16V64
			H208z M136,241.864v-21.336L236.88,160h22.24L360,220.528v21.336l-112-67.2L136,241.864z M240,480h-32V376
			c0-19.312,13.768-35.472,32-39.192V480z M288,480h-32V336.808c18.232,3.72,32,19.872,32,39.192V480z M336,480h-32V376
			c0-30.88-25.128-56-56-56s-56,25.12-56,56v104h-32V246.128l88-52.8l88,52.8V480z M416,480h-32v-64h32V480z M448,480h-16v-80h-64
			v80h-16V331.696l96,37.336V480z M352,314.528v-22.832l128,49.776v22.832L352,314.528z"/>
	</g>
</g>
<g>
	<g>
		<path d="M192,240v48h112v-48H192z M240,272h-32v-16h32V272z M288,272h-32v-16h32V272z"/>
	</g>
</g>
<g>
</g>
<g>
</g>
<g>
</g>
<g>
</g>
<g>
</g>
<g>
</g>
<g>
</g>
<g>
</g>
<g>
</g>
<g>
</g>
<g>
</g>
<g>
</g>
<g>
</g>
<g>
</g>
<g>
</g>
</svg>
