<svg id="Capa_1" enable-background="new 0 0 512 512" height="512" viewBox="0 0 512 512" width="512" xmlns="http://www.w3.org/2000/svg"><g><path d="m159.596 182.207c6.571-10.155 10.404-22.238 10.404-35.207 0-35.841-29.159-65-65-65s-65 29.159-65 65c0 12.969 3.833 25.052 10.404 35.207-28.183 2.345-50.404 26.015-50.404 54.793v80c0 23.123 17.532 42.229 40 44.724v115.276c0 19.299 15.701 35 35 35h60c19.299 0 35-15.701 35-35v-115.276c22.468-2.495 40-21.601 40-44.724v-80c0-28.778-22.221-52.448-50.404-54.793zm-54.596-70.207c19.299 0 35 15.701 35 35s-15.701 35-35 35-35-15.701-35-35 15.701-35 35-35zm75 205c0 8.271-6.729 15-15 15h-10c-8.284 0-15 6.716-15 15v130c0 2.757-2.243 5-5 5h-60c-2.757 0-5-2.243-5-5v-130c0-8.284-6.716-15-15-15h-10c-8.271 0-15-6.729-15-15v-80c0-13.785 11.215-25 25-25h100c13.785 0 25 11.215 25 25z"/><path d="m327.253 16.293c-10.507-10.507-24.476-16.293-39.334-16.293-11.588 0-22.635 3.519-31.919 10.052-9.285-6.533-20.332-10.052-31.919-10.052-14.859 0-28.828 5.786-39.334 16.293-10.507 10.506-16.293 24.475-16.293 39.334 0 14.858 5.786 28.827 16.293 39.333l60.646 60.646c2.929 2.929 6.768 4.394 10.607 4.394s7.678-1.465 10.606-4.394l60.646-60.646c21.689-21.689 21.689-56.979.001-78.667zm-21.213 57.454-50.04 50.04-50.04-50.04c-4.84-4.84-7.506-11.275-7.506-18.12 0-6.846 2.666-13.281 7.506-18.121 4.84-4.841 11.276-7.506 18.121-7.506s13.28 2.665 18.121 7.507l3.192 3.191c5.857 5.856 15.353 5.857 21.211.001l3.194-3.193c4.841-4.841 11.275-7.506 18.12-7.506s13.28 2.666 18.121 7.506c9.991 9.992 9.991 26.249 0 36.241z"/><path d="m511.796 374.534-23.037-138.22c-3.397-20.387-15.915-37.142-32.979-46.424 10.084-11.454 16.22-26.465 16.22-42.89 0-35.841-29.159-65-65-65s-65 29.159-65 65c0 16.425 6.136 31.436 16.221 42.891-17.065 9.281-29.583 26.037-32.979 46.424l-23.037 138.22c-.725 4.349.501 8.797 3.351 12.161s7.035 5.304 11.444 5.304h26.198l8.854 106.246c.647 7.775 7.146 13.754 14.948 13.754h80c7.802 0 14.301-5.979 14.948-13.754l8.854-106.246h26.198c4.409 0 8.596-1.94 11.445-5.305s4.076-7.812 3.351-12.161zm-104.796-262.534c19.299 0 35 15.701 35 35s-15.701 35-35 35-35-15.701-35-35 15.701-35 35-35zm50 250c-7.802 0-14.301 5.979-14.948 13.754l-8.854 106.246h-52.396l-8.854-106.246c-.647-7.775-7.146-13.754-14.948-13.754h-22.293l20.126-120.754c2.824-16.946 17.343-29.246 34.523-29.246h35.287c17.181 0 31.699 12.3 34.523 29.246l20.127 120.754z"/></g></svg>