<?xml version="1.0"?>
<svg xmlns="http://www.w3.org/2000/svg" viewBox="0 0 512 512" width="512" height="512"><g id="outline"><path d="M441.21,110.6A133.5,133.5,0,0,0,257.1,122.959h0l-1.1,1.2-1.1-1.2A133.67,133.67,0,0,0,23.511,228.044,163.854,163.854,0,0,0,102.433,350.3l149.488,88.586a8.006,8.006,0,0,0,8.158,0L409.567,350.3a163.854,163.854,0,0,0,78.922-122.253A133.335,133.335,0,0,0,441.21,110.6ZM232.411,282.53l5.805,17.417-9.794,4.9a8,8,0,0,0-4.183,5.215L217.754,336H202.667L176,316v-9.578l14.656-21.984A8,8,0,0,0,192,280v-8h40v8A8,8,0,0,0,232.411,282.53ZM234.828,256H184a8,8,0,0,0-8,8v13.578l-14.656,21.984A8,8,0,0,0,160,304v1.194l-4.252-5.314A53.808,53.808,0,0,1,144,266.388v-4.776A53.612,53.612,0,0,1,197.612,208a121.086,121.086,0,0,0,35.82-5.408l4.174,29.222A47.744,47.744,0,0,1,234.828,256Zm-61.047,78.336L195.2,350.4A8,8,0,0,0,200,352h8.308a110.3,110.3,0,0,0,11.27,41.044,42.008,42.008,0,0,1,3.511,10.154l-71.25-42.222A46.521,46.521,0,0,0,173.781,334.336ZM256,422.7l-16-9.481v-1.443a58.177,58.177,0,0,0-6.112-25.889,94.2,94.2,0,0,1-9.54-33.9,7.993,7.993,0,0,0,7.413-6.045l7.108-28.43,12.709-6.355a8,8,0,0,0,4.366-6.239l8.979,4.489,7.232,36.164A8,8,0,0,0,280,352h9.912a52.664,52.664,0,0,1-4.381,35.049l-12.686,25.373c-.066.132-.118.267-.176.4Zm107.325-63.6-5.512-7.349a45,45,0,0,0,17.2.426Zm-91.763-84.487a147.1,147.1,0,0,0,19.31,7.25A8,8,0,1,0,303.414,285,146.972,146.972,0,0,0,328,287.911v35.145L302.111,336H286.559l-6.714-33.569a8,8,0,0,0-4.267-5.586l-9.794-4.9ZM344.367,288a7.633,7.633,0,0,1,4.234,13.984l-4.6,3.068V288Zm-38.209,63.691a8.01,8.01,0,0,0,1.42-.536l21.692-10.846c.105.166.21.331.33.491l19.879,26.5L298.054,397.78l1.788-3.575A68.556,68.556,0,0,0,306.158,351.691Zm70.676-16.4A29.838,29.838,0,0,1,344,325.406v-1.125l13.476-8.984A23.633,23.633,0,0,0,344.367,272h-11.53a131.2,131.2,0,0,1-60.6-14.875,50.506,50.506,0,0,1,5.068-17.847l1.75-3.5a50.254,50.254,0,0,1,84.189-8.919l1.008,1.26A53.808,53.808,0,0,1,376,261.612a92.476,92.476,0,0,0,2.758,22.406l11.684,46.735Zm95.752-109.013a147.829,147.829,0,0,1-65.154,106.467l-13.151-52.606A76.409,76.409,0,0,1,392,261.612a69.866,69.866,0,0,0-15.254-43.487l-1.009-1.261a66.254,66.254,0,0,0-110.993,11.759l-1.749,3.5a66.579,66.579,0,0,0-7,29.63v8.95l-5.333,16-2.667-8V265.823a63.677,63.677,0,0,0,5.445-36.271l-5.526-38.683a8,8,0,0,0-10.449-6.459l-6.555,2.186a105.137,105.137,0,0,1-33.3,5.4A69.612,69.612,0,0,0,128,261.612v4.776a69.866,69.866,0,0,0,15.254,43.487L158.632,329.1a30.643,30.643,0,0,1-15.676,18.481l-7.444,3.722L110.59,336.531A147.764,147.764,0,0,1,39.414,226.276,117.639,117.639,0,0,1,243.1,133.771l7,7.635a8,8,0,0,0,11.794,0l7-7.635h0a117.668,117.668,0,0,1,203.689,92.505Z"/><circle cx="216" cy="280" r="8"/></g></svg>
