<svg id="Layer_3" enable-background="new 0 0 64 64" height="512" viewBox="0 0 64 64" width="512" xmlns="http://www.w3.org/2000/svg"><g><path d="m57.6 45.7c-1.462-1.097-3.273-1.7-5.1-1.7h-1c-.955 0-1.904.173-2.803.487-.916-8.252-3.942-16.233-8.765-23.006.744-.415 1.345-1.049 1.701-1.828 5.668 3.277 10.544 7.583 14.488 12.842l.081.107c.194.257.492.398.798.398.145 0 .292-.032.43-.098.429-.205.655-.684.54-1.145l-2.048-8.191c-.667-2.667-2.047-5.105-3.991-7.049-1.631-1.631-3.566-2.819-5.639-3.558 4.332-.778 8.738-.88 13.151-.291l2.424.323c.473.061.919-.214 1.076-.661.157-.448-.022-.943-.429-1.188l-6.667-4c-2.336-1.401-5.011-2.142-7.734-2.142h-.673c-.328 0-.652.019-.976.039l5.872-2.097c.458-.164.732-.633.649-1.113-.083-.479-.499-.829-.985-.829h-6c-5.4 0-10.039 3.311-12 8.008-1.961-4.697-6.6-8.008-12-8.008h-6c-.486 0-.902.35-.985.829s.191.949.649 1.113l5.872 2.097c-.324-.02-.648-.039-.976-.039h-.673c-2.723 0-5.397.741-7.734 2.142l-6.667 4c-.407.244-.586.74-.429 1.188.156.447.604.721 1.076.661l2.424-.323c4.412-.588 8.817-.486 13.149.291-2.073.739-4.007 1.927-5.637 3.558-1.944 1.944-3.324 4.381-3.991 7.049l-2.048 8.191c-.115.461.11.94.54 1.145.138.066.284.098.43.098.306 0 .605-.141.799-.398l.082-.108c4.329-5.773 9.835-10.453 16.148-13.778-.007.095-.029.186-.029.284 0 2.206 1.794 4 4 4 1.104 0 2.105-.45 2.83-1.176 2.132 7.632 2.915 15.666 2.278 23.566-1.37-.885-2.975-1.39-4.608-1.39h-.692l3.836-3.235c.321-.271.439-.713.295-1.108s-.519-.657-.939-.657h-5.465l-7.703-11.555c-.371-.557-1.293-.557-1.664 0l-7.703 11.555h-5.465c-.421 0-.797.264-.94.66s-.023.839.3 1.108l3.991 3.326c-1.425.197-2.797.741-3.951 1.606-1.118.838-2.503 1.3-3.9 1.3h-1.5v2h1.5c1.827 0 3.638-.604 5.1-1.7 1.118-.838 2.503-1.3 3.9-1.3h1c1.397 0 2.782.462 3.9 1.3 1.462 1.097 3.273 1.7 5.1 1.7h1c1.827 0 3.638-.604 5.1-1.7 1.118-.838 2.503-1.3 3.9-1.3h1c1.397 0 2.782.462 3.901 1.301.153.114.314.216.473.32-.045.395-.071.792-.124 1.185l-.167 1.254c-1.248-.682-2.657-1.06-4.083-1.06h-1c-1.827 0-3.638.604-5.1 1.7-1.118.838-2.503 1.3-3.9 1.3h-1c-1.397 0-2.782-.462-3.9-1.3-1.462-1.097-3.273-1.7-5.1-1.7h-1c-1.827 0-3.638.604-5.1 1.7-1.118.838-2.503 1.3-3.9 1.3h-1.5v2h1.5c1.827 0 3.638-.604 5.1-1.7 1.118-.838 2.503-1.3 3.9-1.3h1c1.397 0 2.782.462 3.9 1.3 1.462 1.097 3.273 1.7 5.1 1.7h1c1.827 0 3.638-.604 5.1-1.7 1.118-.838 2.503-1.3 3.9-1.3h1c1.113 0 2.211.304 3.18.847-1.038 1.079-1.68 2.541-1.68 4.153 0 .256.02.514.06.781-1.883 1.051-3.06 3.018-3.06 5.219 0 .552.448 1 1 1h30c.552 0 1-.448 1-1 0-3.242-2.585-5.892-5.802-5.997-1.063-1.845-3.033-3.003-5.198-3.003-1.076 0-2.103.291-3 .814v-2.304c.791-.329 1.642-.51 2.5-.51h1c1.397 0 2.782.462 3.9 1.3 1.462 1.097 3.273 1.7 5.1 1.7h1.5v-2h-1.5c-1.397 0-2.782-.462-3.9-1.3-1.462-1.097-3.273-1.7-5.1-1.7h-1c-.851 0-1.696.145-2.508.396-.008-.946-.047-1.89-.11-2.832.823-.363 1.717-.564 2.618-.564h1c1.397 0 2.782.462 3.9 1.3 1.462 1.097 3.273 1.7 5.1 1.7h1.5v-2h-1.5c-1.397 0-2.782-.462-3.9-1.3zm-36.6-15.897 6.132 9.197h-5.132v-7h-2v7h-5.132zm1.5 17.197h-1c-1.397 0-2.782-.462-3.9-1.3-1.206-.904-2.651-1.45-4.144-1.622l-3.694-3.078h22.501l-4.718 3.979c-.4.209-.784.45-1.145.721-1.118.838-2.503 1.3-3.9 1.3zm24.5 2.799v5.304c-.363-.063-.727-.104-1.083-.102-.478-2.834-2.949-5-5.917-5-.488 0-.96.065-1.415.175l.147-1.105c.18-1.351.313-2.709.412-4.07h7.594c.168 1.592.262 3.193.262 4.798zm-9.174-27.817c.724.98 1.409 1.986 2.052 3.018h-2.197c-.234-1.062-.482-2.119-.765-3.168.293.083.595.137.91.15zm3.227 5.018c.724 1.302 1.388 2.636 1.984 4h-4.31c-.174-1.34-.384-2.673-.636-4zm-1.753 12h6.417c.315 1.321.571 2.656.77 4h-7.246c.058-1.332.078-2.665.059-4zm-.044-2c-.057-1.336-.156-2.669-.29-4h4.897c.504 1.313.948 2.648 1.333 4zm-1.256-17c-1.103 0-2-.897-2-2s.897-2 2-2 2 .897 2 2-.897 2-2 2zm15.982 4.051.964 3.854c-3.719-4.162-8.077-7.639-12.994-10.382-.188-1.557-1.262-2.83-2.711-3.307 4.058-.613 8.259.697 11.276 3.714 1.688 1.689 2.886 3.805 3.465 6.121zm-5.869-17.051c2.361 0 4.68.642 6.705 1.857l2.642 1.585c-5.44-.451-10.855.097-16.129 1.628-1.584-.013-3.178.223-4.724.715 2.365-3.561 6.362-5.785 10.833-5.785zm-2.113-4h.228l-.971.347c-3.624 1.294-6.84 3.479-9.366 6.319 1.685-3.917 5.582-6.666 10.109-6.666zm-24 0c4.527 0 8.424 2.749 10.11 6.666-2.526-2.84-5.742-5.025-9.366-6.319l-.972-.347zm-11.46 7.442 2.642-1.585c2.025-1.215 4.344-1.857 6.705-1.857h.673c4.471 0 8.469 2.224 10.833 5.785-1.546-.493-3.141-.729-4.725-.715-5.274-1.532-10.689-2.08-16.128-1.628zm2.514 17.467.964-3.857c.579-2.316 1.777-4.432 3.465-6.12 2.533-2.533 5.898-3.862 9.313-3.862 1.561 0 3.131.278 4.638.845-.236.097-.463.21-.698.31-.24.081-.467.182-.684.304-6.486 2.894-12.268 7.09-16.998 12.38zm18.946-6.909c-1.103 0-2-.897-2-2 0-.754.424-1.404 1.042-1.745.127-.056.257-.107.384-.161.183-.055.373-.094.574-.094 1.103 0 2 .897 2 2s-.897 2-2 2zm20 34c1.605 0 3.049.955 3.68 2.433.169.396.58.645 1 .604.071-.005.142-.015.212-.024.035-.005.071-.013.108-.013 1.86 0 3.428 1.277 3.874 3h-27.749c.315-1.228 1.205-2.245 2.441-2.721.481-.186.742-.707.603-1.204-.115-.411-.169-.753-.169-1.075 0-2.206 1.794-4 4-4s4 1.794 4.006 3.905c-.007.044-.016.139-.016.184-.004.303.129.591.362.784.234.193.542.271.838.209.722-.148 1.475-.096 2.232.193.446.17.948.003 1.203-.4.742-1.174 2.003-1.875 3.375-1.875z"/><path d="m6 58h2v2h-2z"/><path d="m11 56h2v2h-2z"/><path d="m14 60h2v2h-2z"/><path d="m23 58h2v2h-2z"/><path d="m28 60h2v2h-2z"/><path d="m26 56h2v2h-2z"/><path d="m19 56h2v2h-2z"/><path d="m2 56h2v2h-2z"/></g></svg>